<svg fill="none" height="34" viewBox="0 0 147 34" width="147" xmlns="http://www.w3.org/2000/svg"><g fill="#838792"><path d="m5.3421 26.8192 1.22941 3.0018h-2.47149zm-.61496-1.9173-3.56869 8.4635h1.49485l.88039-2.1579h3.60466l.8804 2.1579h1.57944l-3.5692-8.4635z"/><path d="m19.5036 24.9263v5.8715l-4.6416-5.8715h-1.1818v8.4397h1.3864v-5.8477l4.6421 5.8477h1.1813v-8.4397z"/><path d="m29.1431 26.8192 1.2299 3.0018h-2.4714zm-.6144-1.9173-3.5692 8.4635h1.4953l.8799-2.1579h3.6052l.8799 2.1579h1.5799l-3.5692-8.4635z"/><path d="m37.4812 24.9263v8.4397h5.2809v-1.3864h-3.7977v-7.0533z"/><path d="m50.6196 24.9263-2.0733 3.5327-2.0982-3.5327h-1.6878l2.9775 4.9191v3.5206h1.4837v-3.5206l3.0013-4.9191z"/><path d="m55.7805 24.9263v1.3864h2.7369v7.0533h1.4827v-7.0533h2.737v-1.3864z"/><path d="m68.3921 24.9258h-1.4827v8.4397h1.4827z"/><path d="m80.0592 32.5463c-.7462.6495-1.712.99-2.7005.9523-2.5804 0-4.3528-1.7238-4.3528-4.3523 0-2.4234 1.5313-4.3524 4.3163-4.3524.9317-.0363 1.8448.268 2.5683.8561l-.6631 1.0972c-.5586-.3869-1.226-.5854-1.9052-.5668-1.5673 0-2.7485 1.1337-2.7485 2.9659-.0231.3913.0362.7832.174 1.1502s.3511.701.626.9805.6054.4982.97.6421c.3647.1438.7555.2096 1.1472.1931.7232.0014 1.4267-.2358 2.0014-.6748z"/><path d="m84.089 27.1206c0-1.2659.9888-2.3271 2.6285-2.3271.4424-.0218.8846.0472 1.2993.2028s.7931.3944 1.1119.7019l-.7958 1.1094c-.1896-.2057-.4212-.3681-.6791-.4763-.258-.1082-.5362-.1597-.8157-.1509-.7355 0-1.1818.3734-1.1818.9281 0 1.7486 3.822 1.1939 3.822 4.0033 0 1.4224-1.2416 2.3869-2.8211 2.3869-1.085 0-2.3509-.4701-2.7612-1.3262l.8439-1.0126c.2336.2917.5287.5283.8642.6929.3356.1646.7033.2532 1.0769.2594.6996 0 1.23-.3495 1.23-.9888 0-1.6635-3.822-1.2537-3.822-4.0028z"/></g><path d="m2.87218 10.9736h9.22442c-.1353-2.5009-1.7568-4.05502-4.39238-4.05502-2.77086 0-4.52811 1.72331-4.83204 4.05502zm10.98162 7.2984c-1.6019 1.3295-3.6291 2.0373-5.71039 1.9938-4.93336 0-8.14341-3.1426-8.14341-7.9407 0-4.42684 2.83824-7.94082 7.83897-7.94082 3.91973 0 7.06243 2.77086 7.06243 6.96062.0071.6124-.0496 1.2239-.1692 1.8246h-11.69134c.23656 2.8722 2.33168 4.562 5.30517 4.562 1.69507.0515 3.35147-.5127 4.66287-1.588z" fill="#0076a9"/><path d="m24.4502 20.0627h-1.9598l-7.0619-15.34053h3.1761l3.6832 8.21073c.4391.9802.9123 2.2639 1.2841 3.3793.3553-1.1702.7726-2.3207 1.2502-3.4466l3.48-8.14343h2.8722z" fill="#0076a9"/><path d="m34.5235 10.9736h9.2244c-.1352-2.5009-1.7572-4.05502-4.3923-4.05502-2.7709 0-4.5281 1.72331-4.8321 4.05502zm10.9817 7.2984c-1.6019 1.3295-3.6292 2.0373-5.7104 1.9938-4.9334 0-8.1434-3.1426-8.1434-7.9407 0-4.42684 2.8382-7.94082 7.8389-7.94082 3.9198 0 7.0625 2.77086 7.0625 6.96062.0071.6124-.0496 1.2239-.1692 1.8246h-11.6914c.2366 2.8722 2.3317 4.562 5.3052 4.562 1.6951.0515 3.3515-.5127 4.6629-1.588z" fill="#0076a9"/><path d="m49.6006 4.72216h2.703v1.79068c.3967-.65115.9593-1.18515 1.6303-1.54733.6709-.36218 1.4261-.53952 2.1881-.51385 1.2502 0 1.8585.20313 2.3651.57443l-.9457 2.53431c-.6057-.41195-1.3298-.61376-2.0612-.57444-1.7573 0-2.6022 1.04756-3.1766 2.16249v10.77905h-2.703z" fill="#0076a9"/><path d="m146.151 19.9278h-2.703v-9.2249c0-2.50036-1.082-3.71661-3.278-3.71661-.8-.01923-1.59.17394-2.29.5598-.701.38587-1.286.95061-1.697 1.63663.029.35954.04.72032.034 1.08098v9.6641h-2.704v-9.7993c0-1.85859-1.115-3.14221-3.244-3.14221-.78.0024-1.549.1906-2.242.54902-.694.35842-1.292.87677-1.745 1.51216v10.88033h-2.703v-15.20531h2.703v1.92593c.64-.69667 1.418-1.25192 2.285-1.63017.867-.37824 1.804-.57112 2.75-.56626 2.365 0 4.021 1.04756 4.595 2.63561.614-.83511 1.419-1.51048 2.348-1.96917.929-.4587 1.955-.68726 2.991-.66644 2.805 0 4.9 1.35149 4.9 5.50779z" fill="#ea931a"/><path d="m59.9336 8.67583c0-2.66956 2.1625-4.29155 5.1699-4.29155 2.5004 0 4.325.91231 5.2373 1.79118l-1.2841 2.06118c-1.0475-.94697-2.4064-1.47608-3.8185-1.48674-1.5201 0-2.4324.87837-2.4324 1.89199 0 3.21001 8.2107 1.68991 8.2107 7.02851 0 3.21-2.8382 4.5955-5.8791 4.5955-2.4669 0-4.8999-1.2842-5.6096-2.3652l1.5207-1.9264c1.1755 1.1636 2.7406 1.85 4.3929 1.9264 1.4193 0 2.703-.7097 2.703-2.0951 0-3.0748-8.2108-1.5546-8.2108-7.12977z" fill="#ea931a"/><path d="m73.821.498535h2.7035v4.223675h5.5752v2.5343h-5.5752v6.62269c0 2.3991.7771 3.7845 2.703 3.7845.8705-.0116 1.7132-.3082 2.3991-.8444l.8449 2.0946c-1.1121.8567-2.4827 1.3096-3.8863 1.2841-3.4127 0-4.7642-2.1625-4.7642-6.0483z" fill="#ea931a"/><path d="m85.0464 4.72216h2.703v1.79068c.3967-.65115.9593-1.18515 1.6303-1.54733.6709-.36218 1.4261-.53952 2.1881-.51385 1.2502 0 1.8586.20313 2.3651.57443l-.9457 2.53431c-.6058-.41202-1.3301-.61383-2.0617-.57444-1.7568 0-2.6017 1.04756-3.1761 2.16249v10.77905h-2.703z" fill="#ea931a"/><path d="m119.705 6.53713c-.878-1.28412-2.613-1.9938-5.012-1.9938-1.784-.00933-3.537.46979-5.069 1.38543l.71 2.26431c1.269-.74686 2.718-1.13258 4.19-1.11544 2.284 0 3.196 1.11848 3.311 3.17507v1.0152c-.869-.2275-1.757-.3714-2.654-.4297v-.0004c-4.587-.5506-5.888 1.8256-7.39 3.7384-1.367 1.742-2.559 3.2656-5.328 3.2656 0 0-.194.0035-.306.0035-2.9738 0-5.0658-1.6952-5.3024-4.5674h11.1504c.455-.4987.708-1.149.71-1.8241 0-4.19026-3.143-6.96112-7.062-6.96112-5.001 0-7.8398 3.51398-7.8398 7.94082 0 4.7981 3.2101 7.9407 8.1438 7.9407.189 0 .501-.0019.501-.0019 1.201.0205 2.391-.2347 3.479-.7459 1.087-.5113 2.042-1.2649 2.793-2.2031v.0018c.011-.0125.021-.0248.031-.0373.369-.4188.705-.8438 1.022-1.2479.303-.3854.595-.7589.892-1.108.397-.4612.845-.8761 1.335-1.2367.738-.5415 1.633-.8242 2.548-.804 1.11-.0069 2.215.1526 3.277.4731v2.4664c-.435.591-1.006 1.0685-1.665 1.392-.658.3236-1.385.4836-2.119.4666-1.243 0-2.247-.5415-2.599-1.5015-.351.4326-.674.8789-1.007 1.3024-.312.387-.653.7507-1.018 1.0881.875 1.0582 2.309 1.6453 4.219 1.6453 1.489.0222 2.95-.409 4.189-1.2365v1.1382h2.587v-11.04241c-.048-.9229-.292-1.82495-.717-2.64576zm-18.188.48985c2.636 0 4.258 1.55411 4.393 4.05502h-9.2246c.3044-2.33171 2.0612-4.05504 4.8316-4.05504z" fill="#ea931a"/></svg>